<?xml version="1.0" encoding="UTF-8" standalone="no"?><!DOCTYPE svg PUBLIC "-//W3C//DTD SVG 1.1//EN" "http://www.w3.org/Graphics/SVG/1.1/DTD/svg11.dtd"><svg width="124px" height="33px" version="1.1" xmlns="http://www.w3.org/2000/svg" xmlns:xlink="http://www.w3.org/1999/xlink" xml:space="preserve" xmlns:serif="http://www.serif.com/" style="fill-rule:evenodd;clip-rule:evenodd;stroke-linejoin:round;stroke-miterlimit:2;"><g id="g1" transform="matrix(0.134158,0,0,0.134158,-20.9191,-3.60019)"><path id="path1" d="M382.146,146.591C381.825,88.499 333.94,40.878 275.848,40.878C217.533,40.878 169.548,88.863 169.548,147.177C169.548,205.492 217.533,253.477 275.848,253.477C307.288,253.477 337.161,239.529 357.347,215.424L327.764,207.207L382.146,146.591Z" style="fill:rgb(255,144,0);fill-rule:nonzero;"/><path id="path2" d="M322.73,132.035C324.85,117.89 314.076,110.287 299.351,105.216L304.147,86.057L292.485,83.149L287.833,101.802C284.769,101.039 281.624,100.32 278.491,99.607L283.174,80.848L271.519,77.947L266.742,97.099C264.203,96.518 261.708,95.949 259.288,95.349L259.288,95.286L243.199,91.272L240.073,103.728C240.073,103.728 248.727,105.71 248.546,105.835C253.292,106.967 254.123,110.093 254.004,112.594L248.564,134.423C248.977,134.525 249.382,134.654 249.777,134.811L248.527,134.504L240.898,165.081C240.317,166.513 238.854,168.67 235.552,167.851C235.671,168.02 227.073,165.738 227.073,165.738L221.283,179.088L236.465,182.84C239.285,183.546 242.055,184.284 244.775,184.984L239.948,204.368L251.622,207.301L256.399,188.13C259.582,188.992 262.652,189.787 265.691,190.537L260.933,209.621L272.594,212.528L277.422,193.188C297.306,196.94 312.263,195.433 318.56,177.443C323.631,162.962 318.303,154.608 307.842,149.161C315.458,147.404 321.198,142.389 322.73,132.035ZM296.087,169.402C292.479,183.884 268.092,176.055 260.189,174.092L266.592,148.417C274.501,150.393 299.851,154.301 296.087,169.402ZM299.695,131.828C296.406,145.003 276.108,138.306 269.524,136.668L275.333,113.382C281.911,115.02 303.115,118.084 299.695,131.828Z" style="fill:white;fill-rule:nonzero;"/><path id="path3" d="M399.047,137.174L339.019,204.081L372.785,213.46L349.024,265.359L414.68,199.078L375.286,188.448L399.047,137.174Z" style="fill:rgb(255,186,0);fill-rule:nonzero;"/></g><g id="text5" transform="matrix(0.0315788,0,0,0.0315788,37.9484,19.572)"><g id="path4" transform="matrix(0.941917,0,0,0.941917,-30.8962,-0.418596)"><path d="M219.628,7.37C194.079,7.37 173.197,1.965 156.983,-8.844C141.26,-19.654 128.976,-33.902 120.132,-51.591L117.184,-51.591L96.548,0L13.266,0L131.924,-560.126L240.265,-560.126L218.154,-456.208C216.189,-446.381 213.487,-434.835 210.047,-421.569C206.608,-408.794 202.923,-395.773 198.992,-382.507C195.061,-369.732 191.376,-358.431 187.937,-348.605L190.885,-348.605C203.66,-364.819 217.663,-379.068 232.894,-391.351C248.126,-403.635 268.025,-409.776 292.592,-409.776C312.246,-409.776 330.671,-404.863 347.868,-395.036C365.065,-385.701 379.068,-370.224 389.877,-348.605C400.687,-327.477 406.091,-299.225 406.091,-263.849C406.091,-230.929 401.669,-198.501 392.825,-166.564C383.981,-134.627 371.452,-105.392 355.238,-78.86C339.024,-52.819 319.37,-31.937 296.277,-16.214C273.676,-0.491 248.126,7.37 219.628,7.37ZM201.203,-80.334C214.469,-80.334 226.753,-85.493 238.054,-95.811C249.846,-106.62 259.918,-120.624 268.271,-137.82C277.115,-155.017 283.994,-174.18 288.907,-195.307C293.82,-216.435 296.277,-237.562 296.277,-258.69C296.277,-300.945 280.554,-322.072 249.109,-322.072C231.42,-322.072 216.435,-315.685 204.151,-302.91C191.868,-290.135 181.795,-273.921 173.934,-254.268C166.072,-235.106 160.176,-215.452 156.246,-195.307C152.806,-175.162 151.087,-157.965 151.087,-143.717C151.087,-124.554 155.509,-109.077 164.353,-97.285C173.688,-85.984 185.972,-80.334 201.203,-80.334ZM586.658,-452.523C571.426,-452.523 558.406,-455.717 547.596,-462.104C537.278,-468.983 532.119,-480.529 532.119,-496.743C532.119,-517.38 537.77,-533.102 549.07,-543.912C560.863,-554.721 577.077,-560.126 597.713,-560.126C611.962,-560.126 624.491,-556.932 635.3,-550.545C646.11,-544.157 651.514,-532.857 651.514,-516.643C651.514,-497.48 646.11,-482.003 635.3,-470.211C624.982,-458.419 608.768,-452.523 586.658,-452.523ZM429.675,-0L515.168,-402.406L623.508,-402.406L538.015,0L429.675,-0Z" style="fill:rgb(78,78,78);fill-rule:nonzero;"/></g><g id="path5" transform="matrix(0.941917,0,0,0.941917,-30.8962,-0.418596)"><path d="M738.482,7.37C707.036,7.37 681.732,0.737 662.57,-12.529C643.408,-26.287 633.827,-50.608 633.827,-85.493C633.827,-97.776 635.301,-111.288 638.249,-126.028L679.521,-319.861L624.983,-319.861L635.301,-372.926L706.054,-403.143L753.222,-487.899L823.238,-487.899L805.55,-402.406L907.257,-402.406L889.569,-319.861L787.861,-319.861L746.589,-126.028C745.115,-118.658 744.378,-112.271 744.378,-106.866C744.378,-97.531 747.326,-90.652 753.222,-86.23C759.118,-82.299 766.734,-80.334 776.069,-80.334C785.896,-80.334 795.231,-81.317 804.076,-83.282C813.411,-85.739 823.483,-88.932 834.293,-92.863L834.293,-11.792C822.992,-6.387 809.235,-1.965 793.02,1.474C776.806,5.405 758.627,7.37 738.482,7.37Z" style="fill:rgb(78,78,78);fill-rule:nonzero;"/></g><g id="path6" transform="matrix(0.941917,0,0,0.941917,-30.8962,-0.418596)"><path d="M1048,7.37C1020.48,7.37 995.178,2.457 972.085,-7.37C949.483,-17.688 931.55,-33.657 918.283,-55.276C905.017,-76.894 898.384,-105.392 898.384,-140.769C898.384,-177.128 903.052,-211.276 912.387,-243.213C921.723,-275.641 935.48,-304.384 953.66,-329.443C971.839,-354.501 994.195,-374.154 1020.73,-388.403C1047.26,-402.652 1077.48,-409.776 1111.38,-409.776C1135.45,-409.776 1156.83,-407.565 1175.5,-403.143C1194.66,-398.721 1212.6,-392.334 1229.3,-383.981L1196.13,-301.436C1183.36,-306.841 1170.59,-311.509 1157.81,-315.439C1145.53,-319.861 1131.52,-322.072 1115.8,-322.072C1093.2,-322.072 1073.79,-313.474 1057.58,-296.277C1041.36,-279.572 1029.08,-257.953 1020.73,-231.42C1012.38,-205.38 1008.2,-178.11 1008.2,-149.613C1008.2,-127.011 1013.6,-109.814 1024.41,-98.022C1035.22,-86.23 1050.45,-80.334 1070.11,-80.334C1088.29,-80.334 1104.99,-83.036 1120.22,-88.441C1135.95,-94.337 1152.16,-101.461 1168.87,-109.814L1168.87,-21.373C1152.16,-12.529 1133.98,-5.405 1114.33,-0C1095.16,4.913 1073.06,7.37 1048,7.37Z" style="fill:rgb(78,78,78);fill-rule:nonzero;"/></g><g id="path7" transform="matrix(0.941917,0,0,0.941917,-30.8962,-0.418596)"><path d="M1367.12,7.37C1337.15,7.37 1310.37,1.228 1286.79,-11.055C1263.69,-23.83 1245.52,-41.764 1232.25,-64.857C1219.47,-87.95 1213.09,-115.465 1213.09,-147.402C1213.09,-182.778 1217.51,-216.189 1226.35,-247.635C1235.2,-279.572 1248.46,-307.578 1266.15,-331.654C1283.84,-356.22 1305.95,-375.383 1332.48,-389.14C1359.51,-402.898 1390.95,-409.776 1426.82,-409.776C1473.5,-409.776 1510.59,-395.773 1538.11,-367.767C1565.62,-339.761 1579.38,-300.699 1579.38,-250.583C1579.38,-216.68 1575.2,-184.252 1566.85,-153.298C1558.5,-122.343 1545.48,-94.828 1527.79,-70.753C1510.59,-46.677 1488.48,-27.515 1461.46,-13.266C1434.93,0.491 1403.48,7.37 1367.12,7.37ZM1375.96,-81.071C1396.11,-81.071 1413.06,-89.178 1426.82,-105.392C1441.07,-121.606 1451.88,-142.488 1459.25,-168.038C1466.62,-194.079 1470.3,-221.594 1470.3,-250.583C1470.3,-270.728 1466.37,-287.433 1458.51,-300.699C1451.14,-314.457 1437.87,-321.335 1418.71,-321.335C1402.5,-321.335 1388.25,-315.685 1375.96,-304.384C1363.68,-293.575 1353.61,-279.326 1345.75,-261.638C1337.89,-243.95 1331.99,-225.033 1328.06,-204.888C1324.13,-184.743 1322.16,-165.581 1322.16,-147.402C1322.16,-103.181 1340.1,-81.071 1375.96,-81.071ZM1759.95,-452.523C1744.71,-452.523 1731.69,-455.717 1720.88,-462.104C1710.57,-468.983 1705.41,-480.529 1705.41,-496.743C1705.41,-517.38 1711.06,-533.102 1722.36,-543.912C1734.15,-554.721 1750.37,-560.126 1771,-560.126C1785.25,-560.126 1797.78,-556.932 1808.59,-550.545C1819.4,-544.157 1824.8,-532.857 1824.8,-516.643C1824.8,-497.48 1819.4,-482.003 1808.59,-470.211C1798.27,-458.419 1782.06,-452.523 1759.95,-452.523ZM1602.96,0L1688.46,-402.406L1796.8,-402.406L1711.3,0L1602.96,0ZM1799.75,0L1885.24,-402.406L1967.78,-402.406L1960.41,-327.969L1963.36,-327.969C1979.08,-352.044 1997.02,-371.698 2017.16,-386.929C2037.8,-402.161 2062.12,-409.776 2090.13,-409.776C2125.01,-409.776 2151.05,-399.213 2168.25,-378.085C2185.45,-357.449 2194.04,-329.443 2194.04,-294.066C2194.04,-276.378 2191.34,-254.759 2185.94,-229.209L2138.03,0L2029.69,0L2079.07,-235.106C2083,-252.302 2084.97,-266.551 2084.97,-277.852C2084.97,-307.332 2071.95,-322.072 2045.91,-322.072C2029.69,-322.072 2014.95,-314.948 2001.68,-300.699C1988.42,-286.942 1976.87,-268.271 1967.05,-244.687C1957.71,-221.102 1949.85,-195.061 1943.46,-166.564L1908.09,0L1799.75,0Z" style="fill:rgb(78,78,78);fill-rule:nonzero;"/></g></g><g id="text12" transform="matrix(0.0315788,0,0,0.0315788,35.8537,27.9685)"><g id="path8" transform="matrix(2.33597,0,0,2.33597,462.244,74.6171)"><path d="M4.201,0L28.599,-115.364L52.673,-115.364L32.477,-20.197L72.87,-20.197L68.669,0L4.201,0Z" style="fill:rgb(78,78,78);fill-rule:nonzero;"/></g><g id="path9" transform="matrix(2.33597,0,0,2.33597,462.244,74.6171)"><path d="M86.448,0L89.357,-13.895L104.06,-20.358L119.894,-95.006L107.938,-101.469L110.846,-115.364L161.904,-115.364L158.995,-101.469L143.969,-95.006L128.134,-20.358L140.414,-13.895L137.506,0L86.448,0ZM206.983,1.616C193.626,1.616 183.178,-2.208 175.637,-9.856C168.097,-17.504 164.327,-28.653 164.327,-43.302C164.327,-53.104 165.727,-62.422 168.528,-71.254C171.436,-80.195 175.745,-88.058 181.454,-94.844C187.163,-101.738 194.218,-107.178 202.62,-111.163C211.022,-115.149 220.771,-117.142 231.865,-117.142C243.391,-117.142 254.163,-114.557 264.18,-109.386L255.132,-89.512C251.254,-91.667 247.377,-93.336 243.499,-94.521C239.621,-95.814 235.366,-96.46 230.734,-96.46C223.625,-96.46 217.431,-94.952 212.153,-91.936C206.983,-88.92 202.674,-84.881 199.227,-79.818C195.78,-74.863 193.195,-69.369 191.472,-63.337C189.748,-57.305 188.887,-51.273 188.887,-45.241C188.887,-36.731 190.718,-30.214 194.38,-25.69C198.042,-21.166 203.967,-18.904 212.153,-18.904C214.846,-18.904 217.162,-19.066 219.101,-19.389C221.148,-19.82 223.302,-20.305 225.564,-20.843L230.734,-44.433L209.73,-44.433L214.092,-64.791L258.525,-64.791L245.761,-4.686C240.483,-2.962 234.881,-1.454 228.957,-0.162C223.14,1.023 215.816,1.616 206.983,1.616ZM271.936,0L296.334,-115.364L320.409,-115.364L310.876,-70.123L348.038,-70.123L357.571,-115.364L381.645,-115.364L357.248,0L333.173,0L343.675,-49.765L306.513,-49.765L296.011,0L271.936,0ZM403.458,0L423.493,-95.006L395.702,-95.006L400.065,-115.364L479.721,-115.364L475.359,-95.006L447.568,-95.006L427.533,0L403.458,0ZM474.066,0L498.464,-115.364L526.578,-115.364L553.4,-30.376L554.046,-30.376C554.477,-32.638 554.961,-35.546 555.5,-39.101C556.039,-42.763 556.631,-46.534 557.277,-50.411C558.031,-54.289 558.731,-57.736 559.378,-60.752L571.011,-115.364L592.662,-115.364L568.264,0L541.281,0L513.167,-87.25L512.36,-87.25C512.252,-86.604 512.036,-85.042 511.713,-82.565C511.39,-80.195 510.959,-77.34 510.421,-74.001C509.99,-70.662 509.451,-67.215 508.805,-63.66C508.266,-60.214 507.728,-57.09 507.189,-54.289L495.717,0L474.066,0ZM588.784,0L591.693,-13.895L606.396,-20.358L622.23,-95.006L610.274,-101.469L613.182,-115.364L664.24,-115.364L661.331,-101.469L646.305,-95.006L630.471,-20.358L642.75,-13.895L639.842,0L588.784,0ZM661.17,0L685.567,-115.364L713.681,-115.364L740.503,-30.376L741.149,-30.376C741.58,-32.638 742.065,-35.546 742.603,-39.101C743.142,-42.763 743.734,-46.534 744.381,-50.411C745.135,-54.289 745.835,-57.736 746.481,-60.752L758.115,-115.364L779.766,-115.364L755.368,0L728.385,0L700.271,-87.25L699.463,-87.25C699.355,-86.604 699.14,-85.042 698.817,-82.565C698.493,-80.195 698.063,-77.34 697.524,-74.001C697.093,-70.662 696.555,-67.215 695.908,-63.66C695.37,-60.214 694.831,-57.09 694.293,-54.289L682.821,0L661.17,0ZM832.924,1.616C819.567,1.616 809.118,-2.208 801.578,-9.856C794.038,-17.504 790.268,-28.653 790.268,-43.302C790.268,-53.104 791.668,-62.422 794.469,-71.254C797.377,-80.195 801.686,-88.058 807.395,-94.844C813.104,-101.738 820.159,-107.178 828.561,-111.163C836.963,-115.149 846.711,-117.142 857.806,-117.142C869.332,-117.142 880.103,-114.557 890.121,-109.386L881.073,-89.512C877.195,-91.667 873.317,-93.336 869.439,-94.521C865.562,-95.814 861.307,-96.46 856.675,-96.46C849.566,-96.46 843.372,-94.952 838.094,-91.936C832.924,-88.92 828.615,-84.881 825.168,-79.818C821.721,-74.863 819.136,-69.369 817.412,-63.337C815.689,-57.305 814.827,-51.273 814.827,-45.241C814.827,-36.731 816.658,-30.214 820.321,-25.69C823.983,-21.166 829.907,-18.904 838.094,-18.904C840.787,-18.904 843.103,-19.066 845.042,-19.389C847.088,-19.82 849.243,-20.305 851.505,-20.843L856.675,-44.433L835.67,-44.433L840.033,-64.791L884.466,-64.791L871.702,-4.686C866.423,-2.962 860.822,-1.454 854.898,-0.162C849.081,1.023 841.756,1.616 832.924,1.616Z" style="fill:rgb(78,78,78);fill-rule:nonzero;"/></g><g transform="matrix(31.6668,0,0,31.6668,-1103.7,-658.281)"><g transform="matrix(12,0,0,12,45.5334,22.9448)"></g><text x="37.53px" y="22.945px" style="font-family:'ArialMT', 'Arial', sans-serif;font-size:12px;fill:rgb(78,78,78);">&amp;</text></g></g></svg>